<?xml version="1.0" encoding="UTF-8"?>
<!DOCTYPE svg PUBLIC "-//W3C//DTD SVG 1.1//EN" "http://www.w3.org/Graphics/SVG/1.1/DTD/svg11.dtd">
<svg xmlns="http://www.w3.org/2000/svg" version="1.1" width="303px" height="307px" style="shape-rendering:geometricPrecision; text-rendering:geometricPrecision; image-rendering:optimizeQuality; fill-rule:evenodd; clip-rule:evenodd" xmlns:xlink="http://www.w3.org/1999/xlink">
<g><path style="opacity:1" fill="#fefefe" d="M -0.5,-0.5 C 100.5,-0.5 201.5,-0.5 302.5,-0.5C 302.5,101.833 302.5,204.167 302.5,306.5C 201.5,306.5 100.5,306.5 -0.5,306.5C -0.5,204.167 -0.5,101.833 -0.5,-0.5 Z"/></g>
<g><path style="opacity:1" fill="#1d5e9b" d="M 211.5,28.5 C 208.06,31.6066 205.393,35.2732 203.5,39.5C 167.127,20.7556 130.794,20.9223 94.5,40C 84.689,46.3125 76.3556,54.1459 69.5,63.5C 66.3141,64.509 63.4808,66.1756 61,68.5C 58.1574,65.8373 54.9907,63.8373 51.5,62.5C 96.2692,12.3163 149.602,0.982924 211.5,28.5 Z"/></g>
<g><path style="opacity:1" fill="#fdfdfd" d="M 203.5,39.5 C 201.774,47.0701 202.441,54.4035 205.5,61.5C 195.988,74.02 184.655,84.3533 171.5,92.5C 152.955,76.7294 131.621,66.5628 107.5,62C 96.1667,61.3333 84.8333,61.3333 73.5,62C 72.0993,62.4101 70.766,62.9101 69.5,63.5C 76.3556,54.1459 84.689,46.3125 94.5,40C 130.794,20.9223 167.127,20.7556 203.5,39.5 Z"/></g>
<g><path style="opacity:1" fill="#6c6c6e" d="M 248.5,58.5 C 244.959,60.3909 242.959,63.3909 242.5,67.5C 241.542,67.0472 240.708,66.3805 240,65.5C 234.271,69.9239 227.771,71.5906 220.5,70.5C 229.464,70.1086 237.297,66.7752 244,60.5C 246.3,52.3379 245.967,44.3379 243,36.5C 234.478,27.139 224.311,24.9723 212.5,30C 204.449,37.6532 202.283,46.8199 206,57.5C 206.883,60.1024 208.383,62.2691 210.5,64C 213.644,66.2128 216.644,68.3795 219.5,70.5C 217.883,69.962 216.216,69.6287 214.5,69.5C 211.526,66.8621 208.526,64.1954 205.5,61.5C 202.441,54.4035 201.774,47.0701 203.5,39.5C 205.393,35.2732 208.06,31.6066 211.5,28.5C 225.091,22.8465 236.258,25.8465 245,37.5C 247.52,42.8266 248.02,48.3266 246.5,54C 246.519,55.833 247.185,57.333 248.5,58.5 Z"/></g>
<g><path style="opacity:1" fill="#8c8c90" d="M 220.5,70.5 C 220.167,70.5 219.833,70.5 219.5,70.5C 216.644,68.3795 213.644,66.2128 210.5,64C 208.383,62.2691 206.883,60.1024 206,57.5C 202.283,46.8199 204.449,37.6532 212.5,30C 224.311,24.9723 234.478,27.139 243,36.5C 245.967,44.3379 246.3,52.3379 244,60.5C 237.297,66.7752 229.464,70.1086 220.5,70.5 Z"/></g>
<g><path style="opacity:1" fill="#ee7e2a" d="M 51.5,62.5 C 54.9907,63.8373 58.1574,65.8373 61,68.5C 63.4808,66.1756 66.3141,64.509 69.5,63.5C 70.766,62.9101 72.0993,62.4101 73.5,62C 84.8333,61.3333 96.1667,61.3333 107.5,62C 131.621,66.5628 152.955,76.7294 171.5,92.5C 174.871,95.8715 178.537,98.8715 182.5,101.5C 203.342,123.755 229.009,136.755 259.5,140.5C 255.933,143.633 253.933,147.633 253.5,152.5C 222.35,144.597 195.017,129.93 171.5,108.5C 169.1,105.097 166.1,102.43 162.5,100.5C 135.232,75.4327 103.565,67.4327 67.5,76.5C 68.0369,82.5787 67.2036,88.5787 65,94.5C 62.9579,97.9405 60.4579,100.94 57.5,103.5C 56.391,103.557 55.391,103.89 54.5,104.5C 53.8333,104.5 53.5,104.833 53.5,105.5C 51.4352,105.517 49.4352,105.85 47.5,106.5C 44.8333,106.5 42.1667,106.5 39.5,106.5C 35.3953,104.942 31.7287,102.609 28.5,99.5C 18.5922,84.1494 21.5922,71.9827 37.5,63C 42.1341,61.3031 46.8008,61.1364 51.5,62.5 Z"/></g>
<g><path style="opacity:1" fill="#87888a" d="M 248.5,58.5 C 268.107,79.9325 279.44,105.266 282.5,134.5C 278.548,133.728 274.548,133.395 270.5,133.5C 268.272,108.39 258.939,86.3896 242.5,67.5C 242.959,63.3909 244.959,60.3909 248.5,58.5 Z"/></g>
<g><path style="opacity:1" fill="#fdfdfd" d="M 242.5,67.5 C 258.939,86.3896 268.272,108.39 270.5,133.5C 269.5,134.167 268.5,134.833 267.5,135.5C 264.296,136.383 261.629,138.05 259.5,140.5C 229.009,136.755 203.342,123.755 182.5,101.5C 194.167,91.8333 204.833,81.1667 214.5,69.5C 216.216,69.6287 217.883,69.962 219.5,70.5C 219.833,70.5 220.167,70.5 220.5,70.5C 227.771,71.5906 234.271,69.9239 240,65.5C 240.708,66.3805 241.542,67.0472 242.5,67.5 Z"/></g>
<g><path style="opacity:1" fill="#fdfdfd" d="M 162.5,100.5 C 139.214,119.116 116.214,138.116 93.5,157.5C 79.0555,143.071 67.3888,126.737 58.5,108.5C 58.3713,106.784 58.038,105.117 57.5,103.5C 60.4579,100.94 62.9579,97.9405 65,94.5C 67.2036,88.5787 68.0369,82.5787 67.5,76.5C 103.565,67.4327 135.232,75.4327 162.5,100.5 Z"/></g>
<g><path style="opacity:1" fill="#1e5c9a" d="M 205.5,61.5 C 208.526,64.1954 211.526,66.8621 214.5,69.5C 204.833,81.1667 194.167,91.8333 182.5,101.5C 178.537,98.8715 174.871,95.8715 171.5,92.5C 184.655,84.3533 195.988,74.02 205.5,61.5 Z"/></g>
<g><path style="opacity:1" fill="#123e82" d="M 57.5,103.5 C 58.038,105.117 58.3713,106.784 58.5,108.5C 57.5,106.833 56.1667,105.5 54.5,104.5C 55.391,103.89 56.391,103.557 57.5,103.5 Z"/></g>
<g><path style="opacity:1" fill="#767886" d="M 54.5,104.5 C 56.1667,105.5 57.5,106.833 58.5,108.5C 67.3888,126.737 79.0555,143.071 93.5,157.5C 92.1667,160.833 89.8333,163.167 86.5,164.5C 85.7611,164.631 85.0944,164.464 84.5,164C 74.076,154.427 65.4094,143.594 58.5,131.5C 57.2583,127.345 55.2583,123.678 52.5,120.5C 50.7073,118.574 49.7073,116.241 49.5,113.5C 49.1667,111.5 48.8333,109.5 48.5,107.5C 50.5529,107.598 52.2196,106.931 53.5,105.5C 53.5,104.833 53.8333,104.5 54.5,104.5 Z"/></g>
<g><path style="opacity:1" fill="#fdfdfe" d="M 39.5,106.5 C 42.1667,106.5 44.8333,106.5 47.5,106.5C 47.1706,109.228 47.8372,111.562 49.5,113.5C 49.7073,116.241 50.7073,118.574 52.5,120.5C 53.7417,124.655 55.7417,128.322 58.5,131.5C 65.4094,143.594 74.076,154.427 84.5,164C 85.0944,164.464 85.7611,164.631 86.5,164.5C 86.6107,165.117 86.944,165.617 87.5,166C 73.3297,181.351 63.663,199.184 58.5,219.5C 56.0504,219.298 53.717,219.631 51.5,220.5C 26.2209,187.619 20.7209,151.619 35,112.5C 35.8136,109.823 37.3136,107.823 39.5,106.5 Z"/></g>
<g><path style="opacity:1" fill="#213d84" d="M 53.5,105.5 C 52.2196,106.931 50.5529,107.598 48.5,107.5C 48.8333,109.5 49.1667,111.5 49.5,113.5C 47.8372,111.562 47.1706,109.228 47.5,106.5C 49.4352,105.85 51.4352,105.517 53.5,105.5 Z"/></g>
<g><path style="opacity:1" fill="#1d60a2" d="M 162.5,100.5 C 166.1,102.43 169.1,105.097 171.5,108.5C 148.478,126.342 126.145,145.175 104.5,165C 106.093,165.949 107.426,167.115 108.5,168.5C 106.83,168.249 105.33,167.582 104,166.5C 101.546,168.441 99.713,170.775 98.5,173.5C 95.6057,174.882 93.1057,176.882 91,179.5C 81.2127,192.074 74.3793,206.074 70.5,221.5C 66.6179,220.197 62.6179,219.53 58.5,219.5C 63.663,199.184 73.3297,181.351 87.5,166C 86.944,165.617 86.6107,165.117 86.5,164.5C 89.8333,163.167 92.1667,160.833 93.5,157.5C 116.214,138.116 139.214,119.116 162.5,100.5 Z"/></g>
<g><path style="opacity:1" fill="#fdfdfe" d="M 171.5,108.5 C 195.017,129.93 222.35,144.597 253.5,152.5C 253.5,154.167 253.5,155.833 253.5,157.5C 221.593,161.288 194.259,174.454 171.5,197C 169.243,196.563 166.91,196.063 164.5,195.5C 145.078,188.123 126.411,179.123 108.5,168.5C 107.426,167.115 106.093,165.949 104.5,165C 126.145,145.175 148.478,126.342 171.5,108.5 Z"/></g>
<g><path style="opacity:1" fill="#1d5fa0" d="M 28.5,99.5 C 31.7287,102.609 35.3953,104.942 39.5,106.5C 37.3136,107.823 35.8136,109.823 35,112.5C 20.7209,151.619 26.2209,187.619 51.5,220.5C 47.8351,221.997 44.5017,223.997 41.5,226.5C 15.1125,190.387 8.94586,151.053 23,108.5C 24.3426,105.138 26.176,102.138 28.5,99.5 Z"/></g>
<g><path style="opacity:1" fill="#245394" d="M 52.5,120.5 C 55.2583,123.678 57.2583,127.345 58.5,131.5C 55.7417,128.322 53.7417,124.655 52.5,120.5 Z"/></g>
<g><path style="opacity:1" fill="#1c6fba" d="M 270.5,133.5 C 274.548,133.395 278.548,133.728 282.5,134.5C 298.368,142.843 301.868,154.843 293,170.5C 289.624,174.271 285.458,176.604 280.5,177.5C 276.731,177.244 273.064,177.577 269.5,178.5C 268.167,177.5 266.833,176.5 265.5,175.5C 266.87,175.144 267.87,174.31 268.5,173C 267.427,171.584 267.427,170.25 268.5,169C 264.037,161.327 260.704,153.493 258.5,145.5C 259.806,144.088 260.64,142.421 261,140.5C 262.509,139.91 264.009,139.244 265.5,138.5C 266.09,137.201 267.09,136.368 268.5,136C 268.272,135.601 267.938,135.435 267.5,135.5C 268.5,134.833 269.5,134.167 270.5,133.5 Z"/></g>
<g><path style="opacity:1" fill="#1c66ad" d="M 267.5,135.5 C 267.938,135.435 268.272,135.601 268.5,136C 267.09,136.368 266.09,137.201 265.5,138.5C 264.009,139.244 262.509,139.91 261,140.5C 260.64,142.421 259.806,144.088 258.5,145.5C 260.704,153.493 264.037,161.327 268.5,169C 267.427,170.25 267.427,171.584 268.5,173C 267.87,174.31 266.87,175.144 265.5,175.5C 262.437,173.949 259.771,171.782 257.5,169C 232.691,170.602 210.691,179.268 191.5,195C 188.961,197.37 186.628,199.87 184.5,202.5C 181.097,204.9 178.43,207.9 176.5,211.5C 160.314,230.719 152.647,253.053 153.5,278.5C 149.833,278.5 146.167,278.5 142.5,278.5C 141.365,260.674 144.532,243.674 152,227.5C 155.126,220.745 158.626,214.245 162.5,208C 158.626,205.564 154.626,203.397 150.5,201.5C 155.218,202.802 159.885,203.968 164.5,205C 169.114,201.242 169.114,198.075 164.5,195.5C 166.91,196.063 169.243,196.563 171.5,197C 194.259,174.454 221.593,161.288 253.5,157.5C 253.5,155.833 253.5,154.167 253.5,152.5C 253.933,147.633 255.933,143.633 259.5,140.5C 261.629,138.05 264.296,136.383 267.5,135.5 Z"/></g>
<g><path style="opacity:1" fill="#777985" d="M 108.5,168.5 C 126.411,179.123 145.078,188.123 164.5,195.5C 169.114,198.075 169.114,201.242 164.5,205C 159.885,203.968 155.218,202.802 150.5,201.5C 146.703,201.128 143.37,199.794 140.5,197.5C 134.818,193.992 128.818,190.992 122.5,188.5C 117.062,185.947 111.729,183.113 106.5,180C 103.58,178.054 100.913,175.887 98.5,173.5C 99.713,170.775 101.546,168.441 104,166.5C 105.33,167.582 106.83,168.249 108.5,168.5 Z"/></g>
<g><path style="opacity:1" fill="#fdfdfe" d="M 265.5,175.5 C 266.833,176.5 268.167,177.5 269.5,178.5C 266.521,196.456 259.688,212.789 249,227.5C 245.861,230.813 242.694,233.813 239.5,236.5C 235.818,236.665 232.152,236.499 228.5,236C 225.536,232.034 222.203,228.367 218.5,225C 207.616,216.731 196.283,209.231 184.5,202.5C 186.628,199.87 188.961,197.37 191.5,195C 210.691,179.268 232.691,170.602 257.5,169C 259.771,171.782 262.437,173.949 265.5,175.5 Z"/></g>
<g><path style="opacity:1" fill="#fdfdfd" d="M 98.5,173.5 C 100.913,175.887 103.58,178.054 106.5,180C 111.729,183.113 117.062,185.947 122.5,188.5C 127.914,192.54 133.914,195.54 140.5,197.5C 143.37,199.794 146.703,201.128 150.5,201.5C 154.626,203.397 158.626,205.564 162.5,208C 158.626,214.245 155.126,220.745 152,227.5C 144.532,243.674 141.365,260.674 142.5,278.5C 120.163,276.447 100.163,268.613 82.5,255C 81.1007,253.938 80.1007,252.605 79.5,251C 83.2596,239.038 80.2596,229.205 70.5,221.5C 74.3793,206.074 81.2127,192.074 91,179.5C 93.1057,176.882 95.6057,174.882 98.5,173.5 Z"/></g>
<g><path style="opacity:1" fill="#1a5a96" d="M 280.5,177.5 C 277.168,203.488 266.835,226.154 249.5,245.5C 246.141,242.471 242.808,239.471 239.5,236.5C 242.694,233.813 245.861,230.813 249,227.5C 259.688,212.789 266.521,196.456 269.5,178.5C 273.064,177.577 276.731,177.244 280.5,177.5 Z"/></g>
<g><path style="opacity:1" fill="#315b9a" d="M 122.5,188.5 C 128.818,190.992 134.818,193.992 140.5,197.5C 133.914,195.54 127.914,192.54 122.5,188.5 Z"/></g>
<g><path style="opacity:1" fill="#fdfdfd" d="M 176.5,211.5 C 191.997,218.336 205.497,228.003 217,240.5C 215.073,244.355 213.073,248.355 211,252.5C 210.366,255.555 210.532,258.555 211.5,261.5C 193.892,272.811 174.558,278.478 153.5,278.5C 152.647,253.053 160.314,230.719 176.5,211.5 Z"/></g>
<g><path style="opacity:1" fill="#87898b" d="M 184.5,202.5 C 196.283,209.231 207.616,216.731 218.5,225C 222.203,228.367 225.536,232.034 228.5,236C 232.152,236.499 235.818,236.665 239.5,236.5C 242.808,239.471 246.141,242.471 249.5,245.5C 254.851,256.82 252.851,266.653 243.5,275C 234.29,278.972 225.623,278.139 217.5,272.5C 215.246,268.993 213.246,265.327 211.5,261.5C 210.532,258.555 210.366,255.555 211,252.5C 213.073,248.355 215.073,244.355 217,240.5C 205.497,228.003 191.997,218.336 176.5,211.5C 178.43,207.9 181.097,204.9 184.5,202.5 Z"/></g>
<g><path style="opacity:1" fill="#ef7f2a" d="M 58.5,219.5 C 62.6179,219.53 66.6179,220.197 70.5,221.5C 80.2596,229.205 83.2596,239.038 79.5,251C 80.1007,252.605 81.1007,253.938 82.5,255C 100.163,268.613 120.163,276.447 142.5,278.5C 146.167,278.5 149.833,278.5 153.5,278.5C 174.558,278.478 193.892,272.811 211.5,261.5C 213.246,265.327 215.246,268.993 217.5,272.5C 188.567,289.8 157.567,294.633 124.5,287C 104.855,282.676 87.1884,274.342 71.5,262C 47.762,268.267 36.5953,259.101 38,234.5C 38.9211,231.664 40.0877,228.998 41.5,226.5C 44.5017,223.997 47.8351,221.997 51.5,220.5C 53.717,219.631 56.0504,219.298 58.5,219.5 Z"/></g>
</svg>
