<svg width="56" height="61" viewBox="0 0 56 61" fill="none" xmlns="http://www.w3.org/2000/svg">
<path d="M54.7764 39.8999C54.3105 38.734 53.7449 37.6652 53.0794 36.6289C52.3141 35.463 51.4823 34.3295 50.5839 33.2931C50.0848 34.1351 49.3528 34.8152 48.4544 35.2687C49.253 36.1755 50.0183 37.1471 50.717 38.1186C51.3492 38.9931 51.8816 39.9323 52.2809 40.8715C52.6801 41.8107 52.9463 42.7823 52.9796 43.6567C52.9796 44.1101 52.8798 44.4987 52.7467 44.8874C52.5803 45.276 52.3807 45.5999 52.0479 45.8914C51.7485 46.1828 51.3492 46.4419 50.9167 46.6362C50.4841 46.8306 49.985 46.9925 49.4859 47.122C48.4544 47.3487 47.3564 47.4459 46.2251 47.4459C45.0938 47.4459 43.9625 47.3487 42.8312 47.2192C40.5686 46.9601 38.306 46.4419 36.0767 45.8266C33.8474 45.2112 31.6181 44.4664 29.4553 43.6891C30.4868 44.2397 31.5183 44.7578 32.583 45.276C33.6478 45.7618 34.7125 46.2152 35.8105 46.6686C36.9086 47.122 38.0066 47.4783 39.1379 47.8345C40.2692 48.1908 41.4005 48.4823 42.5983 48.7413C43.7629 49.0004 44.9607 49.1624 46.1918 49.2595C47.423 49.3567 48.6541 49.3243 49.9185 49.13C50.5506 49.0004 51.1828 48.8709 51.815 48.6118C52.4472 48.3527 53.0794 47.9965 53.6118 47.543C54.1775 47.0896 54.6433 46.4743 54.9427 45.7942C55.2422 45.1141 55.4086 44.4016 55.4418 43.7215C55.5417 42.3289 55.2089 41.0658 54.7764 39.8999Z" fill="#80869B"/>
<path d="M4.46698 14.5414C5.39864 14.2176 6.46339 14.0556 7.52813 14.0556C8.62616 14.0233 9.72418 14.1204 10.8222 14.2823C11.4877 14.3795 12.1531 14.509 12.8519 14.6386V14.6062C12.8519 13.7318 13.0848 12.8897 13.4841 12.1772C12.7188 12.0477 11.9202 11.9505 11.1217 11.8858C9.89055 11.7886 8.65943 11.7562 7.42831 11.8534C6.16393 11.9505 4.89954 12.1772 3.66842 12.7278C3.0695 12.9869 2.47058 13.3755 1.93821 13.8289C1.40583 14.3147 0.973278 14.8653 0.707091 15.513C0.440903 16.1607 0.30781 16.8409 0.274536 17.4886C0.274536 18.1363 0.341083 18.784 0.50745 19.3994C0.840184 20.5977 1.37256 21.6988 1.97148 22.7028C2.60367 23.7067 3.26914 24.6783 4.03443 25.5528C4.79972 26.4596 5.59828 27.3016 6.43011 28.0789C7.26195 28.8886 8.12706 29.6334 9.05871 30.3783C8.29342 29.5363 7.52814 28.6618 6.79612 27.755C6.06411 26.8806 5.36536 25.9738 4.76644 25.0022C4.13425 24.063 3.5686 23.0914 3.0695 22.0874C2.60367 21.0835 2.20439 20.0471 2.03803 19.0431C1.87166 18.0068 1.93821 17.0028 2.37076 16.2255C2.80331 15.4482 3.53533 14.8977 4.46698 14.5414Z" fill="#80869B"/>
<path d="M37.5407 22.1846C35.5443 20.8891 33.5146 19.6909 31.4184 18.5897C29.3222 17.4886 27.1927 16.4522 24.9966 15.5454C24.4975 15.3511 24.0317 15.1568 23.5326 14.9625C23.466 15.9664 23.0668 16.9056 22.4678 17.6829C22.9004 17.8772 23.3329 18.0392 23.7655 18.2335C25.8617 19.1403 27.8914 20.1443 29.8878 21.2454C31.8842 22.3141 33.8473 23.5124 35.7439 24.7431C37.574 25.9414 39.3707 27.2045 41.1009 28.5323C41.5335 27.5607 42.2655 26.7835 43.1639 26.2329C41.3671 24.8079 39.4705 23.4477 37.5407 22.1846Z" fill="#80869B"/>
<path d="M18.1756 11.8534C16.645 11.8534 15.3806 13.084 15.3806 14.5738C15.3806 16.0636 16.645 17.2943 18.1756 17.2943C19.7062 17.2943 20.9705 16.0636 20.9705 14.5738C20.9705 13.084 19.7394 11.8534 18.1756 11.8534Z" fill="#80869B"/>
<path d="M45.9921 27.917C44.4615 27.917 43.1971 29.1476 43.1971 30.6374C43.1971 32.1272 44.4615 33.3579 45.9921 33.3579C47.5227 33.3579 48.7871 32.1272 48.7871 30.6374C48.7871 29.1476 47.5227 27.917 45.9921 27.917Z" fill="#E86161"/>
<path d="M18.1755 9.39202C19.207 9.39202 20.1719 9.68349 20.9705 10.1693C21.3365 9.13293 21.7358 8.16134 22.2016 7.18975C22.6675 6.21816 23.1998 5.31135 23.832 4.53408C24.4309 3.72442 25.1962 3.0767 25.9615 2.68806C26.3608 2.52613 26.7601 2.39658 27.1594 2.3642C27.5586 2.33181 27.9912 2.39658 28.3905 2.55852C28.823 2.72045 29.2223 2.94715 29.6216 3.20624C30.0209 3.49772 30.4202 3.82158 30.7529 4.21021C31.4849 4.9551 32.1171 5.86191 32.6827 6.76873C33.2484 7.70793 33.7475 8.67952 34.2133 9.68349C35.145 11.6914 35.877 13.8289 36.5092 15.9988C37.1414 18.1687 37.6405 20.371 38.1063 22.6056C38.073 21.4721 37.9732 20.3386 37.8401 19.2051C37.707 18.0715 37.5407 16.938 37.3743 15.8369C37.1747 14.7034 36.9417 13.6022 36.6423 12.4687C36.3761 11.3676 36.0434 10.2341 35.6441 9.16531C35.2448 8.06418 34.8122 6.99543 34.2799 5.92669C33.7475 4.85794 33.1153 3.85397 32.3167 2.88238C31.9175 2.39658 31.4849 1.94318 30.9525 1.52215C30.4534 1.10113 29.8545 0.744884 29.189 0.453408C28.5236 0.161932 27.7916 0 27.0263 0C26.261 0 25.529 0.161932 24.8635 0.453408C23.5326 1.03636 22.5011 1.94318 21.6693 2.88238C20.8374 3.85397 20.172 4.89033 19.6063 5.95907C19.0407 7.02782 18.5416 8.12895 18.1423 9.23008C18.2088 9.26247 18.1755 9.32724 18.1755 9.39202Z" fill="#BFC2CD"/>
<path d="M35.9436 50.3607C35.5443 51.4294 35.0785 52.4334 34.5461 53.4373C34.0137 54.4413 33.4481 55.3805 32.7826 56.255C32.1171 57.1294 31.3518 57.939 30.52 58.4896C29.6549 59.0402 28.7232 59.3316 27.8249 59.2021C27.7583 59.2021 27.725 59.2021 27.6585 59.1697L27.4921 59.1373L27.3257 59.1049C27.2592 59.0726 27.2259 59.0726 27.1594 59.0402C27.0596 59.0078 26.9265 58.9754 26.8266 58.9106L26.5272 58.7487C26.1279 58.522 25.7286 58.2305 25.3626 57.8743C24.6306 57.1942 23.9984 56.3197 23.4328 55.4129C22.8671 54.5061 22.4013 53.5021 22.002 52.5305C21.8024 52.0447 21.6027 51.5589 21.4364 51.0408C20.7043 51.4618 19.8725 51.7209 18.9409 51.7533C19.1738 52.3362 19.44 52.9192 19.7061 53.5021C20.2052 54.5709 20.8042 55.6072 21.4696 56.6112C22.1684 57.6152 22.9337 58.5868 23.9319 59.3964C24.431 59.8174 24.9966 60.1737 25.5955 60.4652C26.1945 60.7566 26.8932 60.951 27.6252 60.9833C28.324 61.0481 29.056 60.9186 29.6882 60.6919C30.3536 60.4652 30.9193 60.1089 31.4184 59.7203C32.4166 58.9106 33.1819 57.939 33.7808 56.9351C34.413 55.9311 34.9121 54.8623 35.3114 53.7936C35.7106 52.7248 36.0766 51.6237 36.3428 50.5226C36.609 49.4215 36.8419 48.2879 37.0416 47.1868C36.7088 48.2232 36.3428 49.2919 35.9436 50.3607Z" fill="#BFC2CD"/>
<path d="M16.1792 41.9726C16.9112 41.584 17.7763 41.3573 18.6747 41.3573C18.8078 41.3573 18.9409 41.3572 19.074 41.3896C18.9742 40.8391 18.9076 40.2885 18.8411 39.7055C18.5749 37.5033 18.3752 35.301 18.3087 33.0664C18.2089 30.8641 18.2089 28.6294 18.3087 26.4272C18.4085 24.2249 18.5749 21.9903 18.8743 19.8204C18.8743 19.788 18.8743 19.788 18.8743 19.7556C18.6414 19.788 18.4418 19.788 18.2089 19.788C17.3438 19.788 16.5119 19.5937 15.7799 19.205C15.7799 19.2698 15.7466 19.3346 15.7466 19.3994C15.4139 21.6988 15.2143 23.9982 15.1477 26.2976C14.9813 30.8965 15.2143 35.5277 15.913 40.0942C15.9463 40.7095 16.0794 41.3572 16.1792 41.9726Z" fill="#BFC2CD"/>
<path d="M55.2422 18.0392C55.2422 17.8772 55.2422 17.7153 55.2422 17.5534L55.1756 17.0352C55.1756 16.8733 55.1091 16.7113 55.0758 16.5494C55.0425 16.3875 55.0092 16.2255 54.9427 16.0636C54.8762 15.9017 54.8096 15.7397 54.7431 15.5778L54.4769 15.1244C54.1109 14.5091 53.6118 14.0233 53.0461 13.6346C52.4805 13.246 51.8815 12.9869 51.2826 12.7926C50.0515 12.404 48.8204 12.3068 47.6226 12.3068C46.4247 12.3068 45.2269 12.4363 44.0623 12.663C42.8977 12.8574 41.7664 13.1488 40.6351 13.4727C39.5038 13.7966 38.4058 14.1852 37.3078 14.6062C38.4391 14.3471 39.5704 14.1204 40.735 13.9261C41.8663 13.7318 43.0308 13.6022 44.1621 13.5051C45.2934 13.4403 46.458 13.4079 47.556 13.5051C48.654 13.6022 49.7853 13.7966 50.717 14.2176C51.6819 14.6062 52.4805 15.2216 52.8465 15.9988L52.9796 16.2903L53.0794 16.6142C53.1127 16.7113 53.1459 16.8409 53.1459 16.938C53.1459 17.0352 53.1792 17.1647 53.1792 17.2619V17.6181C53.1792 17.7477 53.1792 17.8448 53.1459 17.9744V18.1363C53.1459 18.2011 53.1127 18.2659 53.1127 18.3306L53.0461 18.6869C52.8465 19.6585 52.4139 20.6301 51.9148 21.5369C51.3824 22.4761 50.7835 23.3505 50.1181 24.2249C49.619 24.8727 49.0866 25.488 48.5542 26.1033C49.3195 26.5244 49.985 27.1397 50.4841 27.8846C51.083 27.1721 51.6486 26.4272 52.181 25.6823C52.8797 24.7107 53.4787 23.6744 54.011 22.5732C54.5434 21.4721 54.976 20.3062 55.1423 19.0431L55.1756 18.5573C55.1756 18.4926 55.1756 18.3954 55.2089 18.3306L55.2422 18.0392Z" fill="#E86161"/>
<path d="M13.3509 46.5391C13.3509 46.5067 13.3509 46.4419 13.3509 46.4095C13.2511 46.4419 13.1513 46.4419 13.0515 46.4743C11.9535 46.701 10.8554 46.8629 9.75742 46.9601C8.6594 47.0573 7.59465 47.0573 6.56318 46.9601C5.5317 46.8629 4.5335 46.6038 3.80149 46.1504C3.0362 45.697 2.5371 45.0493 2.33746 44.2396C2.13782 43.3976 2.23763 42.3936 2.5371 41.422C2.80328 40.4181 3.26911 39.4465 3.80149 38.5073C4.33386 37.5357 4.96605 36.6289 5.59825 35.7221C6.92918 33.9084 8.45976 32.2243 10.0569 30.605C10.8554 29.7954 11.6873 29.0181 12.5191 28.2408C13.3509 27.4636 14.2161 26.7187 15.1144 25.9414C14.1162 26.5567 13.1846 27.2045 12.2197 27.8522C11.288 28.5323 10.3563 29.2448 9.45796 29.9573C7.6612 31.4147 5.96426 33.0016 4.40041 34.7829C3.63512 35.6573 2.9031 36.5965 2.23764 37.5681C1.9049 38.0539 1.60544 38.572 1.30598 39.1226C1.00652 39.6408 0.773606 40.2238 0.540693 40.8067C0.341052 41.3897 0.141412 42.005 0.0748651 42.6527C-0.024955 43.3004 -0.024955 43.9806 0.0748651 44.6931C0.207959 45.3732 0.474145 46.0857 0.873426 46.701C1.07307 47.0249 1.30598 47.284 1.57217 47.543C1.83835 47.8021 2.13781 48.0288 2.43728 48.2232C3.0362 48.6118 3.66839 48.9033 4.30059 49.13C4.93278 49.3567 5.56498 49.4862 6.23044 49.5834C6.86264 49.6805 7.49483 49.7129 8.12703 49.7453C8.75922 49.7777 9.39142 49.7453 9.99034 49.7129C11.2215 49.6482 12.4193 49.4862 13.6171 49.2919C13.7835 49.2595 13.9166 49.2271 14.083 49.1947C13.6171 48.4175 13.3509 47.5107 13.3509 46.5391Z" fill="#E86161"/>
<path d="M41.1342 32.8073C40.9013 33.0016 40.6351 33.1635 40.4022 33.3579C38.6054 34.6857 36.7089 35.9811 34.779 37.147C32.8491 38.3453 30.886 39.4789 28.8563 40.5152C26.8932 41.5192 24.8968 42.4908 22.8671 43.3328C23.4993 44.1425 23.9319 45.1141 23.9984 46.1828C26.1612 45.3084 28.2907 44.3044 30.3536 43.268C34.5461 41.0982 38.5389 38.572 42.2322 35.6897C42.5317 35.463 42.7979 35.2363 43.0641 35.0095C42.2655 34.4914 41.5668 33.7141 41.1342 32.8073Z" fill="#E86161"/>
<path d="M21.4696 46.5391C21.4696 45.0493 20.2052 43.8186 18.6747 43.8186C17.1441 43.8186 15.8797 45.0493 15.8797 46.5391C15.8797 48.0288 17.1441 49.2595 18.6747 49.2595C20.2385 49.2595 21.4696 48.0612 21.4696 46.5391Z" fill="#80869B"/>
</svg>
